<?xml version="1.0" standalone="no"?>
<!DOCTYPE svg PUBLIC "-//W3C//DTD SVG 20010904//EN"
 "http://www.w3.org/TR/2001/REC-SVG-20010904/DTD/svg10.dtd">
<svg version="1.0" xmlns="http://www.w3.org/2000/svg"
 width="512.000000pt" height="512.000000pt" viewBox="0 0 512.000000 512.000000"
 preserveAspectRatio="xMidYMid meet">

<g transform="translate(0.000000,512.000000) scale(0.100000,-0.100000)"
fill="#000000" stroke="none">
<path d="M1534 4456 c-77 -34 -154 -138 -189 -256 -23 -79 -21 -219 5 -302 42
-136 119 -208 225 -208 106 0 201 77 266 215 94 199 40 463 -110 542 -51 27
-146 31 -197 9z"/>
<path d="M705 4276 c-37 -16 -80 -65 -100 -113 -20 -48 -19 -194 1 -264 29
-97 74 -171 148 -245 55 -55 83 -75 125 -89 195 -64 337 108 288 350 -23 110
-59 179 -136 256 -85 84 -154 119 -235 119 -34 -1 -75 -7 -91 -14z"/>
<path d="M2135 3905 c-51 -18 -135 -106 -169 -179 -80 -170 -53 -385 62 -487
128 -112 293 -54 383 136 60 128 59 269 -6 403 -58 121 -156 167 -270 127z"/>
<path d="M215 3622 c-83 -39 -121 -113 -113 -223 6 -82 55 -191 116 -260 140
-158 385 -199 494 -83 133 142 22 427 -210 541 -65 32 -85 37 -160 40 -70 3
-95 0 -127 -15z"/>
<path d="M1385 3430 c-157 -33 -281 -132 -414 -330 -106 -158 -171 -313 -214
-510 -72 -323 -25 -512 146 -594 106 -51 173 -45 360 28 176 70 280 87 567 96
159 5 257 12 280 20 88 33 158 107 181 194 45 166 -98 503 -345 813 -114 143
-269 250 -405 279 -73 15 -97 16 -156 4z"/>
<path d="M3728 3194 c-67 -20 -121 -76 -162 -165 -58 -126 -72 -255 -41 -374
32 -121 70 -177 149 -217 77 -40 191 -7 261 74 129 150 150 359 55 547 -35 70
-87 116 -154 136 -58 17 -48 18 -108 -1z"/>
<path d="M4479 2921 c-98 -38 -216 -146 -263 -240 -100 -200 -76 -365 62 -429
189 -86 467 109 521 366 30 142 -10 246 -113 297 -61 30 -139 33 -207 6z"/>
<path d="M2976 2880 c-69 -22 -124 -80 -153 -162 -22 -60 -28 -189 -13 -257
46 -208 239 -369 385 -321 167 55 225 315 118 527 -74 148 -230 246 -337 213z"/>
<path d="M3674 2145 c-312 -68 -696 -364 -855 -660 -37 -68 -43 -88 -47 -155
-6 -98 14 -161 70 -224 70 -81 149 -112 328 -130 126 -13 346 -99 505 -196 36
-22 102 -59 147 -82 79 -41 87 -43 173 -43 80 0 95 3 135 27 62 36 94 73 125
141 62 134 89 403 66 657 -16 180 -42 286 -97 398 -113 227 -304 321 -550 267z"/>
<path d="M4708 2140 c-156 -64 -272 -207 -299 -371 -28 -167 84 -296 238 -275
109 15 251 113 310 214 79 135 84 311 10 390 -58 63 -166 80 -259 42z"/>
</g>
</svg>
