<?xml version="1.0" encoding="utf-8"?>
<!-- Generator: Adobe Illustrator 23.0.2, SVG Export Plug-In . SVG Version: 6.00 Build 0)  -->
<svg version="1.1" id="图层_1" xmlns="http://www.w3.org/2000/svg" xmlns:xlink="http://www.w3.org/1999/xlink" x="0px" y="0px"
	 viewBox="0 0 1024 1024" style="enable-background:new 0 0 1024 1024;" xml:space="preserve">
<style type="text/css">
	.st0{fill:#FFD280;}
	.st1{fill:#A2B7FF;}
	.st2{fill:#A2B7FF;stroke:#143680;stroke-width:7;stroke-miterlimit:10;}
	.st3{fill:#D6E6FF;stroke:#143680;stroke-width:7;stroke-miterlimit:10;}
	.st4{fill:#E9F8FF;stroke:#143680;stroke-width:7;stroke-linecap:round;stroke-linejoin:round;stroke-miterlimit:10;}
	.st5{fill:#296CFB;stroke:#143680;stroke-width:7;stroke-linecap:round;stroke-linejoin:round;stroke-miterlimit:10;}
	.st6{fill:#B9E6FE;stroke:#143680;stroke-width:7;stroke-linecap:round;stroke-linejoin:round;stroke-miterlimit:10;}
	.st7{fill:#61D1FF;stroke:#143680;stroke-width:7;stroke-linecap:round;stroke-linejoin:round;stroke-miterlimit:10;}
	.st8{fill:#D6E6FF;stroke:#143680;stroke-width:7;stroke-linecap:round;stroke-linejoin:round;stroke-miterlimit:10;}
	.st9{fill:none;stroke:#FFFFFF;stroke-width:6.319;stroke-linecap:round;stroke-linejoin:round;stroke-miterlimit:10;}
	.st10{fill:#F0F6FF;}
	.st11{fill:#FD9503;}
	.st12{fill:#D6E6FF;}
	.st13{fill:#296CFB;}
	.st14{fill:#FDCB0D;stroke:#143680;stroke-width:7;stroke-miterlimit:10;}
	.st15{fill:none;stroke:#FFFFFF;stroke-width:5.8386;stroke-linecap:round;stroke-linejoin:round;stroke-miterlimit:10;}
	.st16{fill:#FFFFFF;stroke:#143680;stroke-width:7;stroke-linecap:round;stroke-linejoin:round;stroke-miterlimit:10;}
	.st17{fill:#809CF1;stroke:#143680;stroke-width:7;stroke-miterlimit:10;}
	.st18{fill:#5780D0;stroke:#143680;stroke-width:7;stroke-linecap:round;stroke-linejoin:round;stroke-miterlimit:10;}
	.st19{fill:#F0F6FF;stroke:#143680;stroke-width:7;stroke-linecap:square;stroke-linejoin:round;stroke-miterlimit:10;}
	.st20{fill:#61D1FF;}
	.st21{fill:#F0F6FF;stroke:#143680;stroke-width:7;stroke-miterlimit:10;}
	.st22{fill:#FDCB0D;}
	.st23{fill:#B9E6FE;}
	.st24{fill:#CED6E0;stroke:#143680;stroke-width:7;stroke-miterlimit:10;}
	.st25{fill:#E8EAE9;stroke:#143680;stroke-width:7;stroke-miterlimit:10;}
	.st26{fill:#FFFFFF;stroke:#143680;stroke-width:7;stroke-miterlimit:10;}
	.st27{fill:#FDCB0D;stroke:#143680;stroke-width:7;stroke-linecap:round;stroke-linejoin:round;stroke-miterlimit:10;}
	.st28{fill:#FD9503;stroke:#143680;stroke-width:7;stroke-linecap:round;stroke-linejoin:round;stroke-miterlimit:10;}
	.st29{fill:#296CFB;stroke:#143680;stroke-width:7;stroke-miterlimit:10;}
	.st30{fill:#E9F8FF;stroke:#143680;stroke-width:7;stroke-miterlimit:10;}
	.st31{fill:#EA6670;}
	.st32{fill:#DA3F4D;}
	.st33{fill:#84C3E6;}
	.st34{fill:#E9F8FF;}
	.st35{fill:#84C3E6;stroke:#143680;stroke-width:7;stroke-miterlimit:10;}
	.st36{fill:#2254C3;}
	.st37{fill:#143680;}
	.st38{fill:none;stroke:#143680;stroke-width:7;stroke-linecap:round;stroke-linejoin:round;stroke-miterlimit:10;}
	.st39{fill:#EA6670;stroke:#143680;stroke-width:7;stroke-miterlimit:10;}
	.st40{fill:#E8EAE9;}
	.st41{fill:#FFFFFF;}
	.st42{fill:#A2B7FF;stroke:#143680;stroke-width:7;stroke-linecap:round;stroke-linejoin:round;stroke-miterlimit:10;}
	.st43{fill:#8780EB;stroke:#143680;stroke-width:7;stroke-linecap:round;stroke-linejoin:round;stroke-miterlimit:10;}
	.st44{fill:#809CF1;stroke:#143680;stroke-width:7;stroke-linecap:round;stroke-linejoin:round;stroke-miterlimit:10;}
	.st45{fill:#5780D0;}
	.st46{fill:#2F5396;}
	.st47{fill:#84C3E6;stroke:#143680;stroke-width:7;stroke-linecap:round;stroke-linejoin:round;stroke-miterlimit:10;}
	.st48{fill:#2254C3;stroke:#143680;stroke-width:7;stroke-linecap:round;stroke-linejoin:round;stroke-miterlimit:10;}
	.st49{fill:#F1BE32;stroke:#143680;stroke-width:7;stroke-linecap:round;stroke-linejoin:round;stroke-miterlimit:10;}
	.st50{fill:#EA6670;stroke:#143680;stroke-width:7;stroke-linecap:round;stroke-linejoin:round;stroke-miterlimit:10;}
	.st51{fill:#809CF1;}
	.st52{fill:#F0F6FF;stroke:#143680;stroke-width:7;stroke-linecap:round;stroke-linejoin:round;stroke-miterlimit:10;}
	.st53{fill:#F3F3F3;}
	.st54{opacity:0.5;}
	.st55{fill:#8780EB;}
	.st56{fill:#F1BE32;}
	.st57{fill:#2F5396;stroke:#143680;stroke-width:7;stroke-linecap:round;stroke-linejoin:round;stroke-miterlimit:10;}
	.st58{fill:#FFD280;stroke:#143680;stroke-width:7;stroke-linecap:round;stroke-linejoin:round;stroke-miterlimit:10;}
	.st59{fill:#143680;stroke:#143680;stroke-width:7;stroke-linecap:round;stroke-linejoin:round;stroke-miterlimit:10;}
	.st60{fill:#DA3F4D;stroke:#143680;stroke-width:7;stroke-linecap:round;stroke-linejoin:round;stroke-miterlimit:10;}
	.st61{fill:#8AD7F8;}
	.st62{fill:none;stroke:#000000;stroke-width:1.0744;stroke-miterlimit:10;}
	.st63{fill:#E8EAE9;stroke:#143680;stroke-width:7;stroke-linecap:round;stroke-linejoin:round;stroke-miterlimit:10;}
	.st64{fill:#CED6E0;stroke:#143680;stroke-width:7;stroke-linecap:round;stroke-linejoin:round;stroke-miterlimit:10;}
	.st65{fill:#61D1FF;stroke:#143680;stroke-width:7;stroke-linecap:round;stroke-miterlimit:10;}
	.st66{fill:#B9E6FE;stroke:#143680;stroke-width:7;stroke-linecap:round;stroke-miterlimit:10;}
	.st67{fill:#296CFB;stroke:#143680;stroke-width:7;stroke-linecap:round;stroke-miterlimit:10;}
	.st68{fill:none;}
	.st69{fill:#B9E6FE;stroke:#143680;stroke-width:7;stroke-miterlimit:10;}
	.st70{fill:#61D1FF;stroke:#143680;stroke-width:7;stroke-miterlimit:10;}
	.st71{fill:#FD9503;stroke:#143680;stroke-width:7;stroke-miterlimit:10;}
	.st72{fill:#84DBFF;stroke:#143680;stroke-width:7;stroke-miterlimit:10;}
	.st73{fill:#2254C3;stroke:#143680;stroke-width:7;stroke-miterlimit:10;}
	.st74{fill:#CED6E0;}
	.st75{fill:none;stroke:#EA6670;stroke-width:29.67;stroke-linecap:round;stroke-miterlimit:10;}
	.st76{fill:none;stroke:#296CFB;stroke-width:29.67;stroke-linecap:round;stroke-miterlimit:10;}
	.st77{fill:none;stroke:#D6E6FF;stroke-width:43.7423;stroke-miterlimit:10;}
	.st78{fill:none;stroke:#5780D0;stroke-width:31.3073;stroke-miterlimit:10;}
	.st79{fill:none;stroke:#E8EAE9;stroke-width:13.4455;stroke-miterlimit:10;}
	.st80{fill:#84DBFF;}
	.st81{fill:none;stroke:#143680;stroke-width:7;stroke-miterlimit:10;}
</style>
<g>
	<g>
		<g>
			<path class="st7" d="M612.12,720.87l-6.74-34.61l-48.43-1.1c-3.26-8.43-7.22-16.43-11.75-24.02l28.94-38.89l-23.14-26.61
				l-42.48,23.25c-6.97-5.59-14.39-10.6-22.2-14.95l5.61-48.11l-33.35-11.47l-25.22,41.48c-8.71-1.35-17.59-2.01-26.6-1.87
				l-19.24-44.55l-34.61,6.74l-1.11,48.5c-8.41,3.25-16.4,7.19-23.97,11.72l-38.93-28.97l-26.61,23.15l23.26,42.49
				c-5.6,6.96-10.6,14.39-14.95,22.19l-48.12-5.61l-11.47,33.35l41.44,25.21c-1.35,8.73-2.02,17.61-1.87,26.64l-44.51,19.22
				l6.74,34.61l48.47,1.11c3.25,8.42,7.2,16.41,11.73,23.99l-28.95,38.91l23.14,26.61l42.45-23.23
				c6.98,5.62,14.41,10.63,22.23,14.99l-5.6,48.05l33.35,11.47l25.17-41.38c8.75,1.36,17.66,2.02,26.71,1.88l19.19,44.45l34.61-6.74
				l1.11-48.41c8.44-3.26,16.44-7.22,24.03-11.76l38.87,28.92l26.6-23.15l-23.22-42.43c5.61-6.98,10.62-14.42,14.99-22.24l48.05,5.6
				l11.47-33.35l-41.41-25.19c1.35-8.74,2.01-17.64,1.87-26.67L612.12,720.87z M427.16,835.54c-51.34,10-101.06-23.51-111.09-74.99
				c-10-51.35,23.5-101.06,74.85-111.06c51.49-10.03,101.2,23.48,111.2,74.82C512.15,775.8,478.65,825.51,427.16,835.54z"/>
			<path class="st7" d="M402.56,709.02c-18.48,3.6-30.54,21.49-26.94,39.98c3.61,18.53,21.5,30.59,39.98,26.99
				c18.53-3.61,30.59-21.5,26.98-40.03C438.99,717.47,421.1,705.41,402.56,709.02z"/>
		</g>
		<g>
			<path class="st5" d="M902.37,409.17l3.12-42.27l-55.82-16.59c-1.12-10.8-3.18-21.33-6.04-31.56l45.85-35.96l-18.43-38.17
				l-56.61,13.54c-6.32-8.69-13.34-16.84-21.02-24.35l21.7-54.03l-35.05-23.84l-42.36,40.13c-9.68-4.32-19.76-7.89-30.26-10.58
				l-8.23-57.74l-42.27-3.12l-16.61,55.89c-10.78,1.11-21.29,3.16-31.5,6.02l-36-45.9l-38.17,18.44l13.54,56.63
				c-8.69,6.31-16.84,13.33-24.35,21.01l-54.03-21.71l-23.84,35.05l40.09,42.33c-4.33,9.7-7.9,19.79-10.59,30.3l-57.69,8.22
				l-3.12,42.27l55.86,16.6c1.11,10.79,3.16,21.31,6.02,31.54l-45.87,35.98l18.43,38.17l56.57-13.53
				c6.32,8.72,13.36,16.88,21.04,24.41l-21.68,53.95l35.05,23.84l42.26-40.04c9.72,4.34,19.84,7.93,30.38,10.62l8.21,57.61
				l42.27,3.12l16.58-55.79c10.82-1.12,21.35-3.18,31.59-6.04l35.94,45.82L785.5,581l-13.52-56.55
				c8.72-6.32,16.88-13.36,24.41-21.06l53.95,21.68l23.84-35.05l-40.07-42.29c4.33-9.7,7.91-19.82,10.6-30.34L902.37,409.17z
				 M653.26,461.77c-50.6-3.73-88.57-47.77-84.83-98.5c3.73-50.6,47.76-88.58,98.36-84.84c50.74,3.74,88.72,47.78,84.98,98.37
				C748.03,427.53,704,465.51,653.26,461.77z"/>
			<path class="st5" d="M663.08,329.21c-22.57-1.67-42.21,15.28-43.87,37.84c-1.67,22.63,15.27,42.27,37.84,43.94
				c22.63,1.67,42.27-15.27,43.94-37.9C702.66,350.52,685.71,330.88,663.08,329.21z"/>
		</g>
		<g>
			<path class="st7" d="M449.87,228.28l5.94-18.49l-23.07-13.39c0.67-4.93,0.88-9.84,0.71-14.71l24.29-11.08l-4.1-18.98l-26.67-0.06
				c-1.88-4.55-4.13-8.93-6.74-13.11l15.48-21.72l-13.04-14.39l-23.18,13.31c-3.85-2.96-7.95-5.64-12.34-7.96l2.55-26.6l-18.49-5.94
				l-13.41,23.1c-4.92-0.66-9.82-0.88-14.68-0.71l-11.09-24.31l-18.98,4.1l-0.06,26.67c-4.55,1.87-8.93,4.13-13.1,6.73l-21.72-15.48
				l-14.38,13.04l13.3,23.16c-2.97,3.85-5.65,7.96-7.98,12.35l-26.57-2.55l-5.94,18.49l23.09,13.4c-0.67,4.93-0.88,9.83-0.71,14.69
				l-24.3,11.09l4.1,18.98l26.64,0.06c1.87,4.56,4.13,8.95,6.74,13.13l-15.46,21.69l13.04,14.39l23.13-13.28
				c3.86,2.98,7.98,5.67,12.39,8l-2.54,26.53l18.49,5.94l13.39-23.06c4.94,0.67,9.85,0.88,14.72,0.71l11.07,24.27l18.98-4.1
				l0.06-26.63c4.56-1.88,8.95-4.14,13.14-6.75l21.69,15.46l14.39-13.04l-13.29-23.14c2.97-3.86,5.65-7.97,7.98-12.37L449.87,228.28
				z M333.29,224.9c-22.13-7.11-34.3-30.8-27.18-52.99c7.11-22.13,30.8-34.3,52.93-27.2c22.19,7.13,34.36,30.82,27.26,52.95
				C379.17,219.85,355.48,232.03,333.29,224.9z"/>
			<path class="st7" d="M351.92,166.93c-9.87-3.17-20.44,2.26-23.61,12.13c-3.18,9.9,2.25,20.47,12.12,23.64
				c9.9,3.18,20.47-2.25,23.65-12.15C367.25,180.68,361.82,170.11,351.92,166.93z"/>
		</g>
		<g>
			<path class="st27" d="M416.76,421.93l-7.66-39.34l-37.26-0.7c-3.59-7.52-8.15-14.59-13.58-20.69l13.7-34.49L338.7,304.3
				l-26.82,25.64c-7.69-2.74-15.96-4.32-24.28-4.82l-14.62-34.27l-39.34,7.66l-0.96,37.31c-7.52,3.59-14.33,8.1-20.44,13.53
				l-34.74-13.65l-22.42,33.27l25.85,26.52c-2.7,7.95-4.52,16.26-5.03,24.58l-34.01,14.58l7.66,39.34l37.05,1
				c3.84,7.47,8.4,14.54,13.83,20.64l-14.01,34.28l33.26,22.42l26.83-25.64c7.69,2.74,15.95,4.32,24.32,5.07l14.84,33.97l39.34-7.66
				l0.74-37c7.52-3.59,14.54-8.4,20.9-13.88l34.23,13.75l22.42-33.27l-25.64-26.82c2.74-7.69,4.37-15.7,4.87-24.02L416.76,421.93z
				 M286.39,464.57c-20.12,3.92-39.43-9.1-43.35-29.21s9.1-39.43,29.22-43.35c19.93-3.88,39.43,9.1,43.35,29.22
				C319.52,441.33,306.32,460.68,286.39,464.57z"/>
		</g>
		<g>
			<path class="st47" d="M868.62,728.64l-7.66-39.34l-37.26-0.7c-3.59-7.52-8.15-14.59-13.58-20.69l13.7-34.49L790.55,611
				l-26.82,25.64c-7.69-2.74-15.96-4.32-24.28-4.82l-14.62-34.27l-39.34,7.66l-0.96,37.31c-7.52,3.59-14.33,8.1-20.44,13.53
				l-34.74-13.65l-22.42,33.27l25.85,26.52c-2.7,7.95-4.52,16.26-5.03,24.58l-34.01,14.58l7.66,39.34l37.05,1
				c3.84,7.47,8.4,14.54,13.83,20.64l-14.01,34.28l33.26,22.42l26.83-25.64c7.69,2.74,15.95,4.32,24.32,5.07l14.84,33.97l39.34-7.66
				l0.74-37c7.52-3.59,14.54-8.4,20.9-13.88l34.23,13.75l22.42-33.27l-25.64-26.82c2.74-7.69,4.37-15.7,4.87-24.02L868.62,728.64z
				 M738.25,771.27c-20.12,3.92-39.43-9.1-43.35-29.21s9.1-39.43,29.22-43.35c19.93-3.88,39.43,9.1,43.35,29.22
				C771.38,748.04,758.17,767.39,738.25,771.27z"/>
		</g>
		<g>
			<path class="st6" d="M963.69,586.5l-4.25-21.8l-20.65-0.39c-1.99-4.17-4.52-8.08-7.53-11.47l7.59-19.11l-18.44-12.43
				l-14.87,14.21c-4.26-1.52-8.84-2.39-13.45-2.67l-8.1-18.99l-21.8,4.25l-0.53,20.68c-4.17,1.99-7.94,4.49-11.33,7.5l-19.25-7.57
				l-12.42,18.44l14.33,14.7c-1.5,4.41-2.51,9.01-2.79,13.62l-18.85,8.08l4.25,21.8l20.53,0.56c2.13,4.14,4.65,8.06,7.67,11.44
				l-7.76,19l18.44,12.43l14.87-14.21c4.26,1.52,8.84,2.39,13.48,2.81l8.22,18.83l21.8-4.25l0.41-20.51
				c4.17-1.99,8.06-4.66,11.58-7.69l18.97,7.62l12.43-18.44l-14.21-14.87c1.52-4.26,2.42-8.7,2.7-13.31L963.69,586.5z
				 M891.44,610.13c-11.15,2.17-21.86-5.04-24.03-16.19c-2.17-11.15,5.04-21.85,16.19-24.03c11.04-2.15,21.85,5.04,24.02,16.19
				S902.48,607.98,891.44,610.13z"/>
		</g>
		<g>
			<path class="st5" d="M218.49,617.53l-4.25-21.8l-20.65-0.39c-1.99-4.17-4.52-8.08-7.53-11.47l7.59-19.11l-18.44-12.43
				l-14.87,14.21c-4.26-1.52-8.84-2.39-13.45-2.67l-8.1-18.99l-21.8,4.25l-0.53,20.68c-4.17,1.99-7.94,4.49-11.33,7.5l-19.25-7.57
				l-12.42,18.44l14.33,14.7c-1.5,4.41-2.51,9.01-2.79,13.62l-18.85,8.08l4.25,21.8l20.53,0.56c2.13,4.14,4.65,8.06,7.67,11.44
				l-7.76,19l18.44,12.43l14.87-14.21c4.26,1.52,8.84,2.39,13.48,2.81l8.22,18.83l21.8-4.25l0.41-20.51
				c4.17-1.99,8.06-4.66,11.58-7.69l18.97,7.62l12.43-18.44l-14.21-14.87c1.52-4.26,2.42-8.7,2.7-13.31L218.49,617.53z
				 M146.23,641.16c-11.15,2.17-21.86-5.04-24.03-16.19c-2.17-11.15,5.04-21.85,16.19-24.03c11.04-2.15,21.85,5.04,24.02,16.19
				C164.6,628.28,157.28,639.01,146.23,641.16z"/>
		</g>
	</g>
</g>
</svg>
